<svg width="52" height="52" viewBox="0 0 52 52" fill="none" xmlns="http://www.w3.org/2000/svg">
<rect x="0.5" y="0.5" width="51" height="51" rx="25.5" fill="white"/>
<rect x="0.5" y="0.5" width="51" height="51" rx="25.5" fill="url(#paint0_linear_1046_53)"/>
<rect x="0.5" y="0.5" width="51" height="51" rx="25.5" stroke="url(#paint1_linear_1046_53)"/>
<path d="M13.12 31.5692C13.4254 31.5692 13.673 29.0758 13.673 26C13.673 22.9242 13.4254 20.4308 13.12 20.4308C12.8146 20.4308 12.567 22.9242 12.567 26C12.567 29.0758 12.8146 31.5692 13.12 31.5692Z" fill="black"/>
<path d="M14.59 32.188C14.9302 32.188 15.206 29.4176 15.206 26C15.206 22.5825 14.9302 19.812 14.59 19.812C14.2498 19.812 13.974 22.5825 13.974 26C13.974 29.4176 14.2498 32.188 14.59 32.188Z" fill="black"/>
<path d="M16.228 32.8816C16.603 32.8816 16.907 29.8006 16.907 26C16.907 22.1994 16.603 19.1184 16.228 19.1184C15.853 19.1184 15.549 22.1994 15.549 26C15.549 29.8006 15.853 32.8816 16.228 32.8816Z" fill="black"/>
<path d="M18.041 33.6432C18.4585 33.6432 18.797 30.2212 18.797 26C18.797 21.7788 18.4585 18.3568 18.041 18.3568C17.6234 18.3568 17.285 21.7788 17.285 26C17.285 30.2212 17.6234 33.6432 18.041 33.6432Z" fill="black"/>
<path d="M20.057 34.4932C20.5209 34.4932 20.897 30.6906 20.897 26C20.897 21.3094 20.5209 17.5068 20.057 17.5068C19.5931 17.5068 19.217 21.3094 19.217 26C19.217 30.6906 19.5931 34.4932 20.057 34.4932Z" fill="black"/>
<path d="M22.304 35.4384C22.8181 35.4384 23.235 31.2127 23.235 26C23.235 20.7873 22.8181 16.5616 22.304 16.5616C21.7898 16.5616 21.373 20.7873 21.373 26C21.373 31.2127 21.7898 35.4384 22.304 35.4384Z" fill="black"/>
<path d="M24.796 36.4856C25.3682 36.4856 25.832 31.791 25.832 26C25.832 20.209 25.3682 15.5144 24.796 15.5144C24.2238 15.5144 23.76 20.209 23.76 26C23.76 31.791 24.2238 36.4856 24.796 36.4856Z" fill="black"/>
<path d="M27.561 37.6484C28.1989 37.6484 28.716 32.4332 28.716 26C28.716 19.5668 28.1989 14.3516 27.561 14.3516C26.9231 14.3516 26.406 19.5668 26.406 26C26.406 32.4332 26.9231 37.6484 27.561 37.6484Z" fill="black"/>
<path d="M30.634 38.9472C31.3415 38.9472 31.915 33.1505 31.915 26C31.915 18.8495 31.3415 13.0528 30.634 13.0528C29.9265 13.0528 29.353 18.8495 29.353 26C29.353 33.1505 29.9265 38.9472 30.634 38.9472Z" fill="black"/>
<path d="M34.05 40.382C34.8348 40.382 35.471 33.943 35.471 26C35.471 18.0571 34.8348 11.618 34.05 11.618C33.2653 11.618 32.629 18.0571 32.629 26C32.629 33.943 33.2653 40.382 34.05 40.382Z" fill="black"/>
<path d="M37.844 41.98C38.7178 41.98 39.426 34.8255 39.426 26C39.426 17.1745 38.7178 10.02 37.844 10.02C36.9703 10.02 36.262 17.1745 36.262 26C36.262 34.8255 36.9703 41.98 37.844 41.98Z" fill="black"/>
<defs>
<linearGradient id="paint0_linear_1046_53" x1="26" y1="52" x2="26" y2="0" gradientUnits="userSpaceOnUse">
<stop offset="0.5" stop-color="#232323" stop-opacity="0"/>
<stop offset="1" stop-color="#232323" stop-opacity="0.06"/>
</linearGradient>
<linearGradient id="paint1_linear_1046_53" x1="26" y1="0" x2="26" y2="52" gradientUnits="userSpaceOnUse">
<stop stop-color="#EDEDED" stop-opacity="0.7"/>
<stop offset="0.7" stop-color="#EDEDED" stop-opacity="0"/>
</linearGradient>
</defs>
</svg>
